<svg width="2160" height="2160" viewBox="0 0 2160 2160" fill="none" xmlns="http://www.w3.org/2000/svg">
<rect width="2160" height="2160" fill="#CCFF00"/>
<path d="M595.715 1485.43C427.6 1485.43 326.086 1422.05 293.859 1342.02C286.877 1325.91 283.654 1309.26 283.654 1293.14C283.654 1243.73 319.104 1210.43 369.055 1210.43C407.189 1210.43 432.971 1223.86 458.215 1262.53C484.533 1310.87 536.633 1331.28 598.938 1331.28C675.744 1331.28 725.695 1296.9 725.695 1249.64C725.695 1206.67 692.932 1184.65 601.086 1166.92L521.057 1151.88C366.906 1122.88 286.34 1047.15 286.34 928.982C286.34 779.666 415.783 683.523 594.104 683.523C742.346 683.523 850.842 740.457 888.439 838.748C893.811 852.176 896.496 865.066 896.496 881.18C896.496 926.834 863.195 957.449 813.781 957.986C770.812 957.986 743.957 942.41 720.861 904.812C695.617 856.473 652.648 837.674 595.715 837.674C524.279 837.674 482.385 869.9 482.385 915.555C482.385 956.375 517.297 978.934 601.623 995.047L681.115 1010.09C846.545 1041.78 921.74 1108.91 921.74 1230.84C921.74 1386.6 799.816 1485.43 595.715 1485.43ZM1100.06 1483.82C1044.74 1483.82 1013.05 1450.52 1013.05 1392.51V812.967C1013.05 731.863 1059.24 685.135 1140.88 685.135C1209.63 685.135 1246.69 713.064 1274.62 785.574L1436.29 1194.85H1440.59L1601.72 785.574C1630.19 713.064 1667.25 685.135 1736.54 685.135C1817.64 685.135 1863.83 731.326 1863.83 812.967V1392.51C1863.83 1450.52 1832.14 1483.82 1776.82 1483.82C1722.03 1483.82 1690.34 1450.52 1690.34 1392.51V988.064H1686.58L1514.17 1414.53C1499.67 1451.05 1476.57 1467.7 1438.98 1467.7C1401.38 1467.7 1376.67 1451.05 1362.71 1414.53L1190.83 988.064H1186.54V1392.51C1186.54 1450.52 1154.85 1483.82 1100.06 1483.82Z" fill="black"/>
</svg>
